<svg xmlns="http://www.w3.org/2000/svg" viewBox="0 0 256 256" role="img" aria-label="Novayxk icon">
  <defs>
    <linearGradient id="field" x1="40" y1="24" x2="212" y2="222" gradientUnits="userSpaceOnUse">
      <stop offset="0" stop-color="#121820"/>
      <stop offset="0.58" stop-color="#1A2430"/>
      <stop offset="1" stop-color="#232F3D"/>
    </linearGradient>
    <linearGradient id="monogram" x1="72" y1="74" x2="188" y2="172" gradientUnits="userSpaceOnUse">
      <stop offset="0" stop-color="#F4F7FB"/>
      <stop offset="1" stop-color="#C4D0E1"/>
    </linearGradient>
  </defs>
  <rect width="256" height="256" rx="58" fill="#0B1016"/>
  <rect x="14" y="14" width="228" height="228" rx="50" fill="url(#field)"/>
  <rect x="34" y="34" width="188" height="188" rx="38" fill="#FFFFFF" opacity="0.035"/>
  <rect x="66" y="76" width="24" height="102" rx="12" fill="url(#monogram)"/>
  <rect x="166" y="76" width="24" height="102" rx="12" fill="url(#monogram)"/>
  <path d="M84 88c3.6 0 7.1 1.3 9.9 3.7L176 163.9c4.7 4.1 5.1 11.2 1 15.9-4.1 4.7-11.2 5.1-15.9 1L79 108.6c-4.7-4.1-5.1-11.2-1-15.9A11.2 11.2 0 0 1 84 88Z" fill="url(#monogram)"/>
  <circle cx="176" cy="70" r="10" fill="#D2B282"/>
  <path d="M74 194h108" stroke="#A3B7D4" stroke-width="8" stroke-linecap="round" opacity="0.88"/>
  <path d="M90 207h76" stroke="#6F8FBD" stroke-width="5" stroke-linecap="round"/>
</svg>
